<?xml version="1.0" encoding="utf-8"?>
<!-- Generator: Adobe Illustrator 18.1.1, SVG Export Plug-In . SVG Version: 6.00 Build 0)  -->
<svg version="1.1" id="Layer_1" xmlns="http://www.w3.org/2000/svg" xmlns:xlink="http://www.w3.org/1999/xlink" x="0px" y="0px"
	 viewBox="0 0 1280 300" enable-background="new 0 0 1280 300" xml:space="preserve">
<g>
	<rect x="169.9" y="9.8" fill="none" width="224.8" height="271.9"/>
	<text transform="matrix(1 0 0 1 169.9497 221.2969)" fill="#41434C" font-family="'cookies&milk-regular'" font-size="230.3918">A C</text>
	<rect x="603.2" y="11.3" fill="none" width="592.2" height="242.1"/>
	<text transform="matrix(1 0 0 1 603.1768 222.8496)" fill="#41434C" font-family="'cookies&milk-regular'" font-size="230.3918">kie Story</text>
	<g>
		<path fill="#EAA656" stroke="#D3964D" stroke-miterlimit="10" d="M403,92.8c-9.8,25.2-12.8,49.9-4.8,78.6
			c10.9,38.8,36.7,60.9,60.5,46.1l1-2c0.9-0.8,1.1-0.6,1.7-0.5c1.9-1.3,3.9-2.7,5.8-4c0.4-0.9,0.8-2,1.3-2.8
			c9.2-13.4,16.5-29.2,19.5-48.8c1.5-9.8,0.6-20.6,0.9-30.9c-1.3-4.5-2.5-8.9-3.8-13.4c-0.1-0.2-0.1-0.4-0.2-0.6
			c-0.2-0.6-0.4-1.3-0.5-1.9c-0.8-1.6-1.7-3-2.2-4.7c-6.5-18.9-15.5-32.4-28.6-38.4c-9.8-4.5-18.9,1-28.3,1.9
			c-5.2,3.6-10.3,7.1-15.5,10.7c-1,1.7-2.3,3.4-3.4,5.1L403,92.8z"/>
		<g>
			<g>
				<path fill="#BC7937" stroke="#B17231" stroke-miterlimit="10" d="M413.1,89c2.1,0.9,3.9,2.3,4.6,6.1l-0.5,13.2L412,114
					c-3,2.4,1.7,6.9-1,9l-2.6,4.7c-0.2,0.7-0.8,2.5-0.7,3.4c0.3,3.8,2,6.9,2,6.9c0.6,1.5,2.7,4.8,4.7,5.7c1.9-1.3,1-5.2,2.6-6.2
					c4.3-2.8,5.4,8.2,1.8,16.7c-2.2,5.1-1,10.3,2.1,14.5c1.9,2.6,5.1,8.6,4.9,8.9c-5.4,9.4,1.8,4.8,2.9,7c0.5,1,3.1,2.7,3.1,2.7
					c2.1-1.7,0.6-8.2,2.5-8.9c1.8-0.7,3.5,4.1,1.9,6.4 M436.3,184.6L436.3,184.6c-3.7,2.3-1.1,5.5-1,9.8c0.2,2.8,2.1,3,3.3,4
					c3.7,2.7,4.1,2.7,7.9,9.2c0,0,7.9,10.2,6.6,12.7c-1.2,2.4-28.4,3.7-41.2-8.2c-5.6-5.2-9.1-16.4-13.5-24.8c-0.2-0.5-0.7-0.7-1-1
					c-1.1-4-2.3-8.1-3.4-12.1c-1.5-15.6-5.2-31.1-1.7-46.8c2.5-11.1,2.6-24,9.1-32c0.7-1.6,3.4-0.7,2.3-4.7c0.3-0.2,0.6-0.5,0.9-0.7
					c3,2.5,5.1-7.6,8.4-1.1"/>
				<path fill="#BC7937" stroke="#B17231" stroke-miterlimit="10" d="M461.8,87.6C461.8,87.6,461.8,87.6,461.8,87.6
					c-3.9-3.1-7.8-6.2-11.8-9.2c-0.1-0.1-0.6,0.8-0.6,1c0.3,1,0.8,1.9,1.2,2.8c2.6,5.8,12.4,8.6,3.5,19.5c-0.4,0.5,0.1,4.4,0.9,5.5
					c1.6,2.3,3.8,5.2,5.6,5.2c3.4-0.1,4.2,3.4,5,6.9c0.7,3,1.3,5,3.3,3.7c1.9-1.3,0.7-4.6,0-5.3c-5.3-5.3-1.1-13.1-2.5-19.3
					C465.5,94.4,464.4,90.6,461.8,87.6z"/>
				<path fill="#BC7937" stroke="#B17231" stroke-miterlimit="10" d="M436.8,128.9c3.9,12.5,19.9,39.6,14.2,34.1
					c-1.3,2.2-17.4-29.4-18.1-31C429.1,121.8,432.6,115.5,436.8,128.9z"/>
				<path fill="#BC7937" stroke="#B17231" stroke-miterlimit="10" d="M478.8,151.5c2.1,1.3,5.1-2.8,2.1-8.1c-1-1.8-2.1-3.5-3.1-5.2
					C478.1,142.6,478.5,147,478.8,151.5L478.8,151.5z"/>
				<path fill="#BC7937" stroke="#B17231" stroke-miterlimit="10" d="M459.5,216.7c0.4-0.2,0.8-0.5,1.2-0.7c0.3-1.2,0.6-2.3,0.8-3.5
					l0,0c0-3.9-2-2-2.1-1.5C459.3,211.6,459.5,216.7,459.5,216.7z"/>
				<path fill="#A16E2B" d="M450.8,159.6c0.1,0,0.1-0.1,0.2-0.1c-0.1-0.1-0.1-0.3-0.2-0.4c0,0.1-0.1,0.2-0.1,0.2
					C450.7,159.4,450.8,159.5,450.8,159.6z"/>
				<path fill="#A16E2B" d="M434.4,87.8L434.4,87.8L434.4,87.8z"/>
				<polygon fill="#A16E2B" points="430.9,167.6 430.8,167.6 430.9,167.6 				"/>
				<path fill="#A16E2B" d="M431.8,182.2L431.8,182.2L431.8,182.2z"/>
				<path fill="#A16E2B" d="M464.6,94c0.1,0.1,0.3,0.2,0.4,0.3C464.9,94.2,464.7,94.1,464.6,94z"/>
				<path fill="#A16E2B" d="M476.2,137.9L476.2,137.9L476.2,137.9z"/>
				<path fill="#A16E2B" d="M465,94.3c-0.1-0.1-0.3-0.2-0.4-0.3C464.7,94.1,464.9,94.2,465,94.3z"/>
				<path fill="#A16E2B" stroke="#986631" stroke-miterlimit="10" d="M459.1,210.4L459.1,210.4L459.1,210.4z"/>
				<path fill="#EAA656" stroke="#D3964D" stroke-miterlimit="10" d="M401.4,181.4c2.5-2.8,3.4,0.8,4.4,3.2
					c3.5,8.2,7.4,15.7,13.3,19.4c3,1.8,3.7-0.9,2.8-4.9c-0.5-2.1-1.6-4.1-2.7-5.4c-4.6-4.9-9.3-9.7-14-14.2
					C403.9,178.2,402.1,177.9,401.4,181.4L401.4,181.4z"/>
				<path fill="#EAA656" stroke="#D3964D" stroke-miterlimit="10" d="M403.8,134.8c0.1-3.1,0-6.2,0.3-9.2c0.2-2.3,2.3-5,0.3-6.8
					c-1.6-1.3-3.9-0.5-5.8-0.6c0.2,2.9,0.3,5.8,0.5,8.6c0.3,4.1,3.5,7.3,1.5,12.1c-0.2,0.4,0.3,2.3,0.7,2.5c0.9,0.6,2.6,1,2.7,0.6
					c0.5-2.2,0.6-4.7,0.9-7.1C404.6,135,404.2,134.9,403.8,134.8z"/>
				<path fill="#EAA656" stroke="#D3964D" stroke-miterlimit="10" d="M431.7,198.6c1.3,1.8,2.4,3.5,3.6,5.1c0.4,0.5,0.9,0.3,1.1-0.4
					c0.2-0.8,0.3-1.5,0.5-2.3c0.1-0.7-0.1-1.4-0.6-1.5c-1.6-0.3-2.2-2.8-3.2-4.6c-0.4-0.6-1-0.4-1.1,0.3l-0.4,2.1
					C431.4,197.8,431.5,198.3,431.7,198.6z"/>
				<path fill="#D89D4F" d="M411.6,107.2"/>
				<path fill="#D89D4F" d="M412.7,111"/>
				<path fill="#EAA656" stroke="#D3964D" stroke-miterlimit="10" d="M430.1,189.8"/>
				<path fill="#E9A54C" d="M401.8,151.2"/>
				<path fill="#D89D4F" d="M406.2,143.7L406.2,143.7L406.2,143.7z"/>
				<path fill="#EAA656" stroke="#D3964D" stroke-miterlimit="10" d="M461.3,184.6c0-0.2-0.5-0.2-0.7-0.3c0,0.8-0.1,1.6,0,2.4"/>
				<path fill="#EAA656" stroke="#D3964D" stroke-miterlimit="10" d="M462.6,190.8"/>
				<path fill="#EAA656" stroke="#D3964D" stroke-miterlimit="10" d="M407.2,143c3,2.7,6.2,5.3,9,8.5c0.3,0.4-0.4,4.7-1.3,6.2
					c-1.7,2.8-3.6,0.9-4.2-2.1C409.8,151.1,405.7,148.9,407.2,143L407.2,143z"/>
			</g>
			<path fill="#51342D" stroke="#4A2F28" stroke-miterlimit="10" d="M434.6,99.1c8.7,7.5-3.3,18.6-4.2,15.3
				C429.5,111.1,434.6,99.1,434.6,99.1z"/>
			<path fill="#51342D" stroke="#4A2F28" stroke-miterlimit="10" d="M414.2,164.5c3.6-2,1.9-1.3,3.3,0.8c4,6-3,13.9-4.8,13.3
				C410,177.8,410.5,165.7,414.2,164.5z"/>
			<path fill="#51342D" stroke="#4A2F28" stroke-miterlimit="10" d="M462.1,138.9c3.3,1.2,6,1.6,4.3,4.2s-3.5,4.6-4.4,4.2
				c-0.9-0.4-3.3-1.5-2.9-3.4C459.6,142,462.1,138.9,462.1,138.9z"/>
			<path fill="#51342D" stroke="#4A2F28" stroke-miterlimit="10" d="M415.5,103.4c1.7,2.6,4.5,3.7,2.3,5.2c-2.2,1.5-3.7,3.7-3.7,0.7
				C414.2,106.3,415.5,103.4,415.5,103.4z"/>
			<path fill="#51342D" stroke="#4A2F28" stroke-miterlimit="10" d="M436.6,147.6c1.3,2.3,3.2,2.3,1.6,5.6c-1.6,3.3-4.2,7.6-4.9,5.5
				C432.5,156.6,436.6,147.6,436.6,147.6z"/>
			<path fill="#51342D" stroke="#4A2F28" stroke-miterlimit="10" d="M423.9,72c3,1.2,4.4,5.1,2.6,6.4c-1.9,1.4-10,6.9-7.3-0.9
				C419.7,75.7,423.9,72,423.9,72z"/>
			<path fill="#51342D" stroke="#4A2F28" stroke-miterlimit="10" d="M472.2,98.7c1,4.6,0.2,9.6-2.2,6c-2.5-3.5-4.5-9-1.8-9
				C470.9,95.8,472.2,98.7,472.2,98.7z"/>
			<path fill="#51342D" stroke="#4A2F28" stroke-miterlimit="10" d="M438.8,221.4c3-1.1,6.4-1.9,4.8-3.8c-1.7-1.9-6.1-4.4-6.7-2
				C436.4,218,438.8,221.4,438.8,221.4z"/>
			<path fill="#51342D" stroke="#4A2F28" stroke-miterlimit="10" d="M452.8,175.3c2.5-1.9,7.9-6.2,9-2.8c1.8,6-3.6,11.5-4.9,11.7
				c-1.4,0.2-4.9-3.2-5.1-5.4S452.8,175.3,452.8,175.3z"/>
			<path fill="#51342D" stroke="#4A2F28" stroke-miterlimit="10" d="M406.1,188.8c2.8,1.1,5.9-1.7,5.8,1.9c-0.1,3.6-1.1,6.2-2.8,6.6
				c-1.7,0.4-2.8-2.5-2.8-4.1C406.3,191.7,406.1,188.8,406.1,188.8z"/>
			<path fill="#51342D" stroke="#4A2F28" stroke-miterlimit="10" d="M398.6,150c0.7-3.2,1.1-10.9-1.7-10.2c-2.8,0.7-4.1,1.1-4,2.7
				s-0.6,4.2,0.9,5.1S398.6,150,398.6,150z"/>
			<path fill="#51342D" stroke="#4A2F28" stroke-miterlimit="10" d="M450.6,121.5c1.3,0.5,3.2-6.5,6.3-3.3c6.7,6.7-6.1,15.9-6.4,8.1
				C450.5,124.4,450.6,121.5,450.6,121.5z"/>
			<path fill="#51342D" stroke="#4A2F28" stroke-miterlimit="10" d="M484.2,166.7c1.1-0.1,2.4-0.1,2.2,0.9c-0.2,1-0.7,3.4-2.1,3.8
				s-4,2.1-4.3,0.6C479.7,170.4,484.2,166.7,484.2,166.7z"/>
			<path fill="#51342D" stroke="#4A2F28" stroke-miterlimit="10" d="M462.1,197.4c2.2,2.4,4,2.9,3.9,6.5c-0.1,3.6,0.1,7.7-1.6,6
				c-1.7-1.7-2-7.2-2.4-7.8C461.5,201.4,462.1,197.4,462.1,197.4z"/>
			<path fill="#51342D" stroke="#4A2F28" stroke-miterlimit="10" d="M440.8,70.9c2.3,1.2,2.9-0.3,3.5,2.3s-1.3,5.8-1.8,7.2
				c-0.5,1.4-2.7-8.9-2.5-9S440.8,70.9,440.8,70.9z"/>
		</g>
	</g>
	<g>
		<path fill="#EAA656" stroke="#D3964D" stroke-miterlimit="10" d="M510.9,92.8c-9.8,25.2-12.8,49.9-4.8,78.6
			c10.9,38.8,36.7,60.9,60.5,46.1l1-2c0.9-0.8,1.1-0.6,1.7-0.5c1.9-1.3,3.9-2.7,5.8-4c0.4-0.9,0.8-2,1.3-2.8
			c9.2-13.4,16.5-29.2,19.5-48.8c1.5-9.8,0.6-20.6,0.9-30.9c-1.3-4.5-2.5-8.9-3.8-13.4c-0.1-0.2-0.1-0.4-0.2-0.6
			c-0.2-0.6-0.4-1.3-0.5-1.9c-0.8-1.6-1.7-3-2.2-4.7c-6.5-18.9-15.5-32.4-28.6-38.4c-9.8-4.5-18.9,1-28.3,1.9
			c-5.2,3.6-10.3,7.1-15.5,10.7c-1,1.7-2.3,3.4-3.4,5.1L510.9,92.8z"/>
		<g>
			<g>
				<path fill="#BC7937" stroke="#B17231" stroke-miterlimit="10" d="M521,89c2.1,0.9,3.9,2.3,4.6,6.1l-0.5,13.2l-5.3,5.7
					c-3,2.4,1.7,6.9-1,9l-2.6,4.7c-0.2,0.7-0.8,2.5-0.7,3.4c0.3,3.8,2,6.9,2,6.9c0.6,1.5,2.7,4.8,4.7,5.7c1.9-1.3,1-5.2,2.6-6.2
					c4.3-2.8,5.4,8.2,1.8,16.7c-2.2,5.1-1,10.3,2.1,14.5c1.9,2.6,5.1,8.6,4.9,8.9c-5.4,9.4,1.8,4.8,2.9,7c0.5,1,3.1,2.7,3.1,2.7
					c2.1-1.7,0.6-8.2,2.5-8.9c1.8-0.7,3.5,4.1,1.9,6.4 M544.2,184.6L544.2,184.6c-3.7,2.3-1.1,5.5-1,9.8c0.2,2.8,2.1,3,3.3,4
					c3.7,2.7,4.1,2.7,7.9,9.2c0,0,7.9,10.2,6.6,12.7c-1.2,2.4-28.4,3.7-41.2-8.2c-5.6-5.2-9.1-16.4-13.5-24.8c-0.2-0.5-0.7-0.7-1-1
					c-1.1-4-2.3-8.1-3.4-12.1c-1.5-15.6-5.2-31.1-1.7-46.8c2.5-11.1,2.6-24,9.1-32c0.7-1.6,3.4-0.7,2.3-4.7c0.3-0.2,0.6-0.5,0.9-0.7
					c3,2.5,5.1-7.6,8.4-1.1"/>
				<path fill="#BC7937" stroke="#B17231" stroke-miterlimit="10" d="M569.7,87.6C569.7,87.6,569.7,87.6,569.7,87.6
					c-3.9-3.1-7.8-6.2-11.8-9.2c-0.1-0.1-0.6,0.8-0.6,1c0.3,1,0.8,1.9,1.2,2.8c2.6,5.8,12.4,8.6,3.5,19.5c-0.4,0.5,0.1,4.4,0.9,5.5
					c1.6,2.3,3.8,5.2,5.6,5.2c3.4-0.1,4.2,3.4,5,6.9c0.7,3,1.3,5,3.3,3.7c1.9-1.3,0.7-4.6,0-5.3c-5.3-5.3-1.1-13.1-2.5-19.3
					C573.4,94.4,572.3,90.6,569.7,87.6z"/>
				<path fill="#BC7937" stroke="#B17231" stroke-miterlimit="10" d="M544.7,128.9c3.9,12.5,19.9,39.6,14.2,34.1
					c-1.3,2.2-17.4-29.4-18.1-31C537,121.8,540.5,115.5,544.7,128.9z"/>
				<path fill="#BC7937" stroke="#B17231" stroke-miterlimit="10" d="M586.7,151.5c2.1,1.3,5.1-2.8,2.1-8.1c-1-1.8-2.1-3.5-3.1-5.2
					C586,142.6,586.4,147,586.7,151.5L586.7,151.5z"/>
				<path fill="#BC7937" stroke="#B17231" stroke-miterlimit="10" d="M567.4,216.7c0.4-0.2,0.8-0.5,1.2-0.7c0.3-1.2,0.6-2.3,0.8-3.5
					l0,0c0-3.9-2-2-2.1-1.5C567.2,211.6,567.4,216.7,567.4,216.7z"/>
				<path fill="#A16E2B" d="M558.7,159.6c0.1,0,0.1-0.1,0.2-0.1c-0.1-0.1-0.1-0.3-0.2-0.4c0,0.1-0.1,0.2-0.1,0.2
					C558.6,159.4,558.7,159.5,558.7,159.6z"/>
				<path fill="#A16E2B" d="M542.3,87.8L542.3,87.8L542.3,87.8z"/>
				<polygon fill="#A16E2B" points="538.8,167.6 538.7,167.6 538.8,167.6 				"/>
				<path fill="#A16E2B" d="M539.7,182.2L539.7,182.2L539.7,182.2z"/>
				<path fill="#A16E2B" d="M572.5,94c0.1,0.1,0.3,0.2,0.4,0.3C572.8,94.2,572.6,94.1,572.5,94z"/>
				<path fill="#A16E2B" d="M584.1,137.9L584.1,137.9L584.1,137.9z"/>
				<path fill="#A16E2B" d="M572.9,94.3c-0.1-0.1-0.3-0.2-0.4-0.3C572.6,94.1,572.8,94.2,572.9,94.3z"/>
				<path fill="#A16E2B" stroke="#986631" stroke-miterlimit="10" d="M567,210.4L567,210.4L567,210.4z"/>
				<path fill="#EAA656" stroke="#D3964D" stroke-miterlimit="10" d="M509.3,181.4c2.5-2.8,3.4,0.8,4.4,3.2
					c3.5,8.2,7.4,15.7,13.3,19.4c3,1.8,3.7-0.9,2.8-4.9c-0.5-2.1-1.6-4.1-2.7-5.4c-4.6-4.9-9.3-9.7-14-14.2
					C511.8,178.2,510,177.9,509.3,181.4L509.3,181.4z"/>
				<path fill="#EAA656" stroke="#D3964D" stroke-miterlimit="10" d="M511.7,134.8c0.1-3.1,0-6.2,0.3-9.2c0.2-2.3,2.3-5,0.3-6.8
					c-1.6-1.3-3.9-0.5-5.8-0.6c0.2,2.9,0.3,5.8,0.5,8.6c0.3,4.1,3.5,7.3,1.5,12.1c-0.2,0.4,0.3,2.3,0.7,2.5c0.9,0.6,2.6,1,2.7,0.6
					c0.5-2.2,0.6-4.7,0.9-7.1C512.5,135,512.1,134.9,511.7,134.8z"/>
				<path fill="#EAA656" stroke="#D3964D" stroke-miterlimit="10" d="M539.6,198.6c1.3,1.8,2.4,3.5,3.6,5.1c0.4,0.5,0.9,0.3,1.1-0.4
					c0.2-0.8,0.3-1.5,0.5-2.3c0.1-0.7-0.1-1.4-0.6-1.5c-1.6-0.3-2.2-2.8-3.2-4.6c-0.4-0.6-1-0.4-1.1,0.3l-0.4,2.1
					C539.3,197.8,539.4,198.3,539.6,198.6z"/>
				<path fill="#D89D4F" d="M519.5,107.2"/>
				<path fill="#D89D4F" d="M520.6,111"/>
				<path fill="#EAA656" stroke="#D3964D" stroke-miterlimit="10" d="M537.9,189.8"/>
				<path fill="#E9A54C" d="M509.7,151.2"/>
				<path fill="#D89D4F" d="M514.1,143.7L514.1,143.7L514.1,143.7z"/>
				<path fill="#EAA656" stroke="#D3964D" stroke-miterlimit="10" d="M569.2,184.6c0-0.2-0.5-0.2-0.7-0.3c0,0.8-0.1,1.6,0,2.4"/>
				<path fill="#EAA656" stroke="#D3964D" stroke-miterlimit="10" d="M570.4,190.8"/>
				<path fill="#EAA656" stroke="#D3964D" stroke-miterlimit="10" d="M515.1,143c3,2.7,6.2,5.3,9,8.5c0.3,0.4-0.4,4.7-1.3,6.2
					c-1.7,2.8-3.6,0.9-4.2-2.1C517.7,151.1,513.6,148.9,515.1,143L515.1,143z"/>
			</g>
			<path fill="#51342D" stroke="#4A2F28" stroke-miterlimit="10" d="M542.5,99.1c8.7,7.5-3.3,18.6-4.2,15.3
				C537.4,111.1,542.5,99.1,542.5,99.1z"/>
			<path fill="#51342D" stroke="#4A2F28" stroke-miterlimit="10" d="M522.1,164.5c3.6-2,1.9-1.3,3.3,0.8c4,6-3,13.9-4.8,13.3
				C517.9,177.8,518.4,165.7,522.1,164.5z"/>
			<path fill="#51342D" stroke="#4A2F28" stroke-miterlimit="10" d="M570,138.9c3.3,1.2,6,1.6,4.3,4.2c-1.7,2.6-3.5,4.6-4.4,4.2
				c-0.9-0.4-3.3-1.5-2.9-3.4C567.5,142,570,138.9,570,138.9z"/>
			<path fill="#51342D" stroke="#4A2F28" stroke-miterlimit="10" d="M523.4,103.4c1.7,2.6,4.5,3.7,2.3,5.2c-2.2,1.5-3.7,3.7-3.7,0.7
				S523.4,103.4,523.4,103.4z"/>
			<path fill="#51342D" stroke="#4A2F28" stroke-miterlimit="10" d="M544.5,147.6c1.3,2.3,3.2,2.3,1.6,5.6c-1.6,3.3-4.2,7.6-4.9,5.5
				C540.4,156.6,544.5,147.6,544.5,147.6z"/>
			<path fill="#51342D" stroke="#4A2F28" stroke-miterlimit="10" d="M531.8,72c3,1.2,4.4,5.1,2.6,6.4c-1.9,1.4-10,6.9-7.3-0.9
				C527.6,75.7,531.8,72,531.8,72z"/>
			<path fill="#51342D" stroke="#4A2F28" stroke-miterlimit="10" d="M580.1,98.7c1,4.6,0.2,9.6-2.2,6s-4.5-9-1.8-9
				C578.8,95.8,580.1,98.7,580.1,98.7z"/>
			<path fill="#51342D" stroke="#4A2F28" stroke-miterlimit="10" d="M546.7,221.4c3-1.1,6.4-1.9,4.8-3.8c-1.7-1.9-6.1-4.4-6.7-2
				C544.3,218,546.7,221.4,546.7,221.4z"/>
			<path fill="#51342D" stroke="#4A2F28" stroke-miterlimit="10" d="M560.7,175.3c2.5-1.9,7.9-6.2,9-2.8c1.8,6-3.6,11.5-4.9,11.7
				s-4.9-3.2-5.1-5.4S560.7,175.3,560.7,175.3z"/>
			<path fill="#51342D" stroke="#4A2F28" stroke-miterlimit="10" d="M514,188.8c2.8,1.1,5.9-1.7,5.8,1.9c-0.1,3.6-1.1,6.2-2.8,6.6
				c-1.7,0.4-2.8-2.5-2.8-4.1S514,188.8,514,188.8z"/>
			<path fill="#51342D" stroke="#4A2F28" stroke-miterlimit="10" d="M506.5,150c0.7-3.2,1.1-10.9-1.7-10.2c-2.8,0.7-4.1,1.1-4,2.7
				s-0.6,4.2,0.9,5.1S506.5,150,506.5,150z"/>
			<path fill="#51342D" stroke="#4A2F28" stroke-miterlimit="10" d="M558.5,121.5c1.3,0.5,3.2-6.5,6.3-3.3c6.7,6.7-6.1,15.9-6.4,8.1
				C558.4,124.4,558.5,121.5,558.5,121.5z"/>
			<path fill="#51342D" stroke="#4A2F28" stroke-miterlimit="10" d="M592.1,166.7c1.1-0.1,2.4-0.1,2.2,0.9c-0.2,1-0.7,3.4-2.1,3.8
				s-4,2.1-4.3,0.6C587.6,170.4,592.1,166.7,592.1,166.7z"/>
			<path fill="#51342D" stroke="#4A2F28" stroke-miterlimit="10" d="M570,197.4c2.2,2.4,4,2.9,3.9,6.5c-0.1,3.6,0.1,7.7-1.6,6
				c-1.7-1.7-2-7.2-2.4-7.8C569.4,201.4,570,197.4,570,197.4z"/>
			<path fill="#51342D" stroke="#4A2F28" stroke-miterlimit="10" d="M548.7,70.9c2.3,1.2,2.9-0.3,3.5,2.3c0.6,2.6-1.3,5.8-1.8,7.2
				s-2.7-8.9-2.5-9C548.1,71.4,548.7,70.9,548.7,70.9z"/>
		</g>
	</g>
</g>
</svg>
